<svg xmlns="http://www.w3.org/2000/svg" width="900" height="560" viewBox="0 0 900 560" font-family="DejaVu Sans, Verdana, sans-serif"><rect width="900" height="560" fill="#ffffff"/><text x="88" y="28" font-size="17" font-weight="bold">Repudiation against key length</text><text x="88" y="46" font-size="12" fill="#444444">measured rate with 99% Wilson interval, the exact in-model probability, and the proven a-priori bound</text><line x1="88" y1="442.0" x2="860" y2="442.0" stroke="#e4e4e4" stroke-width="1"/><text x="78" y="446.0" font-size="11" text-anchor="end" fill="#666666">1e-6</text><line x1="88" y1="377.7" x2="860" y2="377.7" stroke="#e4e4e4" stroke-width="1"/><text x="78" y="381.7" font-size="11" text-anchor="end" fill="#666666">1e-5</text><line x1="88" y1="313.3" x2="860" y2="313.3" stroke="#e4e4e4" stroke-width="1"/><text x="78" y="317.3" font-size="11" text-anchor="end" fill="#666666">1e-4</text><line x1="88" y1="249.0" x2="860" y2="249.0" stroke="#e4e4e4" stroke-width="1"/><text x="78" y="253.0" font-size="11" text-anchor="end" fill="#666666">1e-3</text><line x1="88" y1="184.7" x2="860" y2="184.7" stroke="#e4e4e4" stroke-width="1"/><text x="78" y="188.7" font-size="11" text-anchor="end" fill="#666666">1e-2</text><line x1="88" y1="120.3" x2="860" y2="120.3" stroke="#e4e4e4" stroke-width="1"/><text x="78" y="124.3" font-size="11" text-anchor="end" fill="#666666">1e-1</text><line x1="88" y1="56.0" x2="860" y2="56.0" stroke="#e4e4e4" stroke-width="1"/><text x="78" y="60.0" font-size="11" text-anchor="end" fill="#666666">1e0</text><text x="88.0" y="462.0" font-size="11" text-anchor="middle" fill="#444444">24</text><text x="173.8" y="462.0" font-size="11" text-anchor="middle" fill="#444444">48</text><text x="259.6" y="462.0" font-size="11" text-anchor="middle" fill="#444444">96</text><text x="345.3" y="462.0" font-size="11" text-anchor="middle" fill="#444444">132</text><text x="431.1" y="462.0" font-size="11" text-anchor="middle" fill="#444444">138</text><text x="516.9" y="462.0" font-size="11" text-anchor="middle" fill="#444444">192</text><text x="602.7" y="462.0" font-size="11" text-anchor="middle" fill="#444444">300</text><text x="688.4" y="462.0" font-size="11" text-anchor="middle" fill="#444444">384</text><text x="774.2" y="462.0" font-size="11" text-anchor="middle" fill="#444444">600</text><text x="860.0" y="462.0" font-size="11" text-anchor="middle" fill="#444444">768</text><text x="450" y="482" font-size="12" text-anchor="middle" fill="#444444">key length L</text><polyline points="88.0,56.0 173.8,56.0 259.6,56.0 345.3,56.0 431.1,56.0 516.9,56.2 602.7,56.5 688.4,56.8 774.2,57.6 860.0,58.3" fill="none" stroke="#b30000" stroke-width="2.5" stroke-dasharray="7 4"/><polyline points="88.0,94.7 173.8,107.8 259.6,131.9 345.3,148.6 431.1,151.6 516.9,154.4 602.7,180.6 688.4,194.2 774.2,230.5 860.0,264.0" fill="none" stroke="#0057b8" stroke-width="2"/><line x1="88.0" y1="86.7" x2="88.0" y2="98.6" stroke="#111111" stroke-width="1.6"/><line x1="83.0" y1="98.6" x2="93.0" y2="98.6" stroke="#111111" stroke-width="1.6"/><line x1="83.0" y1="86.7" x2="93.0" y2="86.7" stroke="#111111" stroke-width="1.6"/><circle cx="88.0" cy="92.4" r="4" fill="#111111"/><line x1="173.8" y1="98.5" x2="173.8" y2="114.5" stroke="#111111" stroke-width="1.6"/><line x1="168.8" y1="114.5" x2="178.8" y2="114.5" stroke="#111111" stroke-width="1.6"/><line x1="168.8" y1="98.5" x2="178.8" y2="98.5" stroke="#111111" stroke-width="1.6"/><circle cx="173.8" cy="106.3" r="4" fill="#111111"/><line x1="259.6" y1="112.8" x2="259.6" y2="135.8" stroke="#111111" stroke-width="1.6"/><line x1="254.6" y1="135.8" x2="264.6" y2="135.8" stroke="#111111" stroke-width="1.6"/><line x1="254.6" y1="112.8" x2="264.6" y2="112.8" stroke="#111111" stroke-width="1.6"/><circle cx="259.6" cy="124.1" r="4" fill="#111111"/><line x1="345.3" y1="126.6" x2="345.3" y2="159.2" stroke="#111111" stroke-width="1.6"/><line x1="340.3" y1="159.2" x2="350.3" y2="159.2" stroke="#111111" stroke-width="1.6"/><line x1="340.3" y1="126.6" x2="350.3" y2="126.6" stroke="#111111" stroke-width="1.6"/><circle cx="345.3" cy="142.6" r="4" fill="#111111"/><line x1="431.1" y1="141.2" x2="431.1" y2="189.8" stroke="#111111" stroke-width="1.6"/><line x1="426.1" y1="189.8" x2="436.1" y2="189.8" stroke="#111111" stroke-width="1.6"/><line x1="426.1" y1="141.2" x2="436.1" y2="141.2" stroke="#111111" stroke-width="1.6"/><circle cx="431.1" cy="165.3" r="4" fill="#111111"/><line x1="516.9" y1="131.4" x2="516.9" y2="168.4" stroke="#111111" stroke-width="1.6"/><line x1="511.9" y1="168.4" x2="521.9" y2="168.4" stroke="#111111" stroke-width="1.6"/><line x1="511.9" y1="131.4" x2="521.9" y2="131.4" stroke="#111111" stroke-width="1.6"/><circle cx="516.9" cy="149.7" r="4" fill="#111111"/><line x1="602.7" y1="145.7" x2="602.7" y2="201.4" stroke="#111111" stroke-width="1.6"/><line x1="597.7" y1="201.4" x2="607.7" y2="201.4" stroke="#111111" stroke-width="1.6"/><line x1="597.7" y1="145.7" x2="607.7" y2="145.7" stroke="#111111" stroke-width="1.6"/><circle cx="602.7" cy="173.3" r="4" fill="#111111"/><line x1="688.4" y1="158.9" x2="688.4" y2="249.7" stroke="#111111" stroke-width="1.6"/><line x1="683.4" y1="249.7" x2="693.4" y2="249.7" stroke="#111111" stroke-width="1.6"/><line x1="683.4" y1="158.9" x2="693.4" y2="158.9" stroke="#111111" stroke-width="1.6"/><circle cx="688.4" cy="204.0" r="4" fill="#111111"/><line x1="774.2" y1="164.0" x2="774.2" y2="283.2" stroke="#111111" stroke-width="1.6"/><line x1="769.2" y1="283.2" x2="779.2" y2="283.2" stroke="#111111" stroke-width="1.6"/><line x1="769.2" y1="164.0" x2="779.2" y2="164.0" stroke="#111111" stroke-width="1.6"/><circle cx="774.2" cy="223.4" r="4" fill="#111111"/><line x1="860.0" y1="171.0" x2="860.0" y2="442.0" stroke="#111111" stroke-width="1.6"/><line x1="855.0" y1="442.0" x2="865.0" y2="442.0" stroke="#111111" stroke-width="1.6"/><line x1="855.0" y1="171.0" x2="865.0" y2="171.0" stroke="#111111" stroke-width="1.6"/><text x="860.0" y="457.0" font-size="10" text-anchor="middle" fill="#111111">0/400</text><line x1="88" y1="504" x2="114" y2="504" stroke="#b30000" stroke-width="2.5" stroke-dasharray="7 4"/><text x="120" y="508" font-size="11">enforced bound (PROVEN, every signer strategy)</text><line x1="418" y1="504" x2="444" y2="504" stroke="#0057b8" stroke-width="2"/><text x="450" y="508" font-size="11">exact in-model P (closed form)</text><circle cx="101" cy="524" r="4" fill="#111111"/><text x="120" y="528" font-size="11">measured, with 99% Wilson interval; a bar reaching the axis floor is 0/n</text><text x="88" y="548" font-size="10" fill="#666666">Regenerate: python tools/sweep.py reduce repudiation-curve --results &apos;C:\Users\Aftab\.sih141\results&apos; --charts &apos;docs\figures&apos;</text></svg>