<svg xmlns="http://www.w3.org/2000/svg" width="980" height="560" viewBox="0 0 980 560" font-family="Georgia, serif" font-size="12">
<rect width="980" height="560" fill="#ffffff"/>
<text x="96" y="28" font-size="16" font-weight="bold">Detection against a derived operating point</text>
<text x="96" y="46" fill="#555555">one curve per adversary; every point is a threshold derived by passing eps to the shipped detector</text>
<line x1="96.0" y1="64" x2="96.0" y2="464" stroke="#e2e2e2"/>
<text x="96.0" y="480" text-anchor="middle" fill="#555555">1e-31</text>
<line x1="113.4" y1="64" x2="113.4" y2="464" stroke="#e2e2e2"/>
<text x="113.4" y="480" text-anchor="middle" fill="#555555">1e-30</text>
<line x1="130.8" y1="64" x2="130.8" y2="464" stroke="#e2e2e2"/>
<text x="130.8" y="480" text-anchor="middle" fill="#555555">1e-29</text>
<line x1="148.3" y1="64" x2="148.3" y2="464" stroke="#e2e2e2"/>
<text x="148.3" y="480" text-anchor="middle" fill="#555555">1e-28</text>
<line x1="165.7" y1="64" x2="165.7" y2="464" stroke="#e2e2e2"/>
<text x="165.7" y="480" text-anchor="middle" fill="#555555">1e-27</text>
<line x1="183.1" y1="64" x2="183.1" y2="464" stroke="#e2e2e2"/>
<text x="183.1" y="480" text-anchor="middle" fill="#555555">1e-26</text>
<line x1="200.5" y1="64" x2="200.5" y2="464" stroke="#e2e2e2"/>
<text x="200.5" y="480" text-anchor="middle" fill="#555555">1e-25</text>
<line x1="217.9" y1="64" x2="217.9" y2="464" stroke="#e2e2e2"/>
<text x="217.9" y="480" text-anchor="middle" fill="#555555">1e-24</text>
<line x1="235.4" y1="64" x2="235.4" y2="464" stroke="#e2e2e2"/>
<text x="235.4" y="480" text-anchor="middle" fill="#555555">1e-23</text>
<line x1="252.8" y1="64" x2="252.8" y2="464" stroke="#e2e2e2"/>
<text x="252.8" y="480" text-anchor="middle" fill="#555555">1e-22</text>
<line x1="270.2" y1="64" x2="270.2" y2="464" stroke="#e2e2e2"/>
<text x="270.2" y="480" text-anchor="middle" fill="#555555">1e-21</text>
<line x1="287.6" y1="64" x2="287.6" y2="464" stroke="#e2e2e2"/>
<text x="287.6" y="480" text-anchor="middle" fill="#555555">1e-20</text>
<line x1="305.0" y1="64" x2="305.0" y2="464" stroke="#e2e2e2"/>
<text x="305.0" y="480" text-anchor="middle" fill="#555555">1e-19</text>
<line x1="322.5" y1="64" x2="322.5" y2="464" stroke="#e2e2e2"/>
<text x="322.5" y="480" text-anchor="middle" fill="#555555">1e-18</text>
<line x1="339.9" y1="64" x2="339.9" y2="464" stroke="#e2e2e2"/>
<text x="339.9" y="480" text-anchor="middle" fill="#555555">1e-17</text>
<line x1="357.3" y1="64" x2="357.3" y2="464" stroke="#e2e2e2"/>
<text x="357.3" y="480" text-anchor="middle" fill="#555555">1e-16</text>
<line x1="374.7" y1="64" x2="374.7" y2="464" stroke="#e2e2e2"/>
<text x="374.7" y="480" text-anchor="middle" fill="#555555">1e-15</text>
<line x1="392.1" y1="64" x2="392.1" y2="464" stroke="#e2e2e2"/>
<text x="392.1" y="480" text-anchor="middle" fill="#555555">1e-14</text>
<line x1="409.5" y1="64" x2="409.5" y2="464" stroke="#e2e2e2"/>
<text x="409.5" y="480" text-anchor="middle" fill="#555555">1e-13</text>
<line x1="427.0" y1="64" x2="427.0" y2="464" stroke="#e2e2e2"/>
<text x="427.0" y="480" text-anchor="middle" fill="#555555">1e-12</text>
<line x1="444.4" y1="64" x2="444.4" y2="464" stroke="#e2e2e2"/>
<text x="444.4" y="480" text-anchor="middle" fill="#555555">1e-11</text>
<line x1="461.8" y1="64" x2="461.8" y2="464" stroke="#e2e2e2"/>
<text x="461.8" y="480" text-anchor="middle" fill="#555555">1e-10</text>
<line x1="479.2" y1="64" x2="479.2" y2="464" stroke="#e2e2e2"/>
<text x="479.2" y="480" text-anchor="middle" fill="#555555">1e-9</text>
<line x1="496.6" y1="64" x2="496.6" y2="464" stroke="#e2e2e2"/>
<text x="496.6" y="480" text-anchor="middle" fill="#555555">1e-8</text>
<line x1="514.1" y1="64" x2="514.1" y2="464" stroke="#e2e2e2"/>
<text x="514.1" y="480" text-anchor="middle" fill="#555555">1e-7</text>
<line x1="531.5" y1="64" x2="531.5" y2="464" stroke="#e2e2e2"/>
<text x="531.5" y="480" text-anchor="middle" fill="#555555">1e-6</text>
<line x1="548.9" y1="64" x2="548.9" y2="464" stroke="#e2e2e2"/>
<text x="548.9" y="480" text-anchor="middle" fill="#555555">1e-5</text>
<line x1="566.3" y1="64" x2="566.3" y2="464" stroke="#e2e2e2"/>
<text x="566.3" y="480" text-anchor="middle" fill="#555555">1e-4</text>
<line x1="583.7" y1="64" x2="583.7" y2="464" stroke="#e2e2e2"/>
<text x="583.7" y="480" text-anchor="middle" fill="#555555">1e-3</text>
<line x1="601.2" y1="64" x2="601.2" y2="464" stroke="#e2e2e2"/>
<text x="601.2" y="480" text-anchor="middle" fill="#555555">1e-2</text>
<line x1="618.6" y1="64" x2="618.6" y2="464" stroke="#e2e2e2"/>
<text x="618.6" y="480" text-anchor="middle" fill="#555555">1e-1</text>
<line x1="636.0" y1="64" x2="636.0" y2="464" stroke="#e2e2e2"/>
<text x="636.0" y="480" text-anchor="middle" fill="#555555">1e0</text>
<line x1="96" y1="464.0" x2="636" y2="464.0" stroke="#e2e2e2"/>
<text x="88" y="468.0" text-anchor="end" fill="#555555">0.00</text>
<line x1="96" y1="364.0" x2="636" y2="364.0" stroke="#e2e2e2"/>
<text x="88" y="368.0" text-anchor="end" fill="#555555">0.25</text>
<line x1="96" y1="264.0" x2="636" y2="264.0" stroke="#e2e2e2"/>
<text x="88" y="268.0" text-anchor="end" fill="#555555">0.50</text>
<line x1="96" y1="164.0" x2="636" y2="164.0" stroke="#e2e2e2"/>
<text x="88" y="168.0" text-anchor="end" fill="#555555">0.75</text>
<line x1="96" y1="64.0" x2="636" y2="64.0" stroke="#e2e2e2"/>
<text x="88" y="68.0" text-anchor="end" fill="#555555">1.00</text>
<line x1="96" y1="464" x2="636" y2="464" stroke="#333333"/>
<line x1="96" y1="64" x2="96" y2="464" stroke="#333333"/>
<text x="366" y="506" text-anchor="middle" font-weight="bold">PROVEN false-positive bound (union bound under the honest null)</text>
<text x="366" y="524" text-anchor="middle" fill="#555555">smaller is a stronger guarantee; the budget eps runs from 5e-01 at the right to 1e-30 at the left</text>
<text transform="translate(24,264) rotate(-90)" text-anchor="middle" font-weight="bold">MEASURED detection rate (99% Wilson interval)</text>
<polyline points="625.3,64.0 612.8,64.0 595.3,64.0 576.8,64.0 561.0,64.0 542.5,64.0 524.4,64.0 507.3,64.0 489.9,64.0 471.1,64.0 417.6,64.0 367.5,64.0 316.5,64.0 204.6,64.0 99.8,64.0" fill="none" stroke="#1b4f72" stroke-width="1.6"/>
<line x1="625.3" y1="120.9" x2="625.3" y2="64.0" stroke="#1b4f72" stroke-width="1" opacity="0.45"/>
<circle cx="625.3" cy="64.0" r="3" fill="#1b4f72"/>
<line x1="612.8" y1="120.9" x2="612.8" y2="64.0" stroke="#1b4f72" stroke-width="1" opacity="0.45"/>
<circle cx="612.8" cy="64.0" r="3" fill="#1b4f72"/>
<line x1="595.3" y1="120.9" x2="595.3" y2="64.0" stroke="#1b4f72" stroke-width="1" opacity="0.45"/>
<circle cx="595.3" cy="64.0" r="3" fill="#1b4f72"/>
<line x1="576.8" y1="120.9" x2="576.8" y2="64.0" stroke="#1b4f72" stroke-width="1" opacity="0.45"/>
<circle cx="576.8" cy="64.0" r="3" fill="#1b4f72"/>
<line x1="561.0" y1="120.9" x2="561.0" y2="64.0" stroke="#1b4f72" stroke-width="1" opacity="0.45"/>
<circle cx="561.0" cy="64.0" r="3" fill="#1b4f72"/>
<line x1="542.5" y1="120.9" x2="542.5" y2="64.0" stroke="#1b4f72" stroke-width="1" opacity="0.45"/>
<circle cx="542.5" cy="64.0" r="3" fill="#1b4f72"/>
<line x1="524.4" y1="120.9" x2="524.4" y2="64.0" stroke="#1b4f72" stroke-width="1" opacity="0.45"/>
<circle cx="524.4" cy="64.0" r="3" fill="#1b4f72"/>
<line x1="507.3" y1="120.9" x2="507.3" y2="64.0" stroke="#1b4f72" stroke-width="1" opacity="0.45"/>
<circle cx="507.3" cy="64.0" r="3" fill="#1b4f72"/>
<line x1="489.9" y1="120.9" x2="489.9" y2="64.0" stroke="#1b4f72" stroke-width="1" opacity="0.45"/>
<circle cx="489.9" cy="64.0" r="3" fill="#1b4f72"/>
<line x1="471.1" y1="120.9" x2="471.1" y2="64.0" stroke="#1b4f72" stroke-width="1" opacity="0.45"/>
<circle cx="471.1" cy="64.0" r="3" fill="#1b4f72"/>
<line x1="417.6" y1="120.9" x2="417.6" y2="64.0" stroke="#1b4f72" stroke-width="1" opacity="0.45"/>
<circle cx="417.6" cy="64.0" r="3" fill="#1b4f72"/>
<line x1="367.5" y1="120.9" x2="367.5" y2="64.0" stroke="#1b4f72" stroke-width="1" opacity="0.45"/>
<circle cx="367.5" cy="64.0" r="3" fill="#1b4f72"/>
<line x1="316.5" y1="120.9" x2="316.5" y2="64.0" stroke="#1b4f72" stroke-width="1" opacity="0.45"/>
<circle cx="316.5" cy="64.0" r="3" fill="#1b4f72"/>
<line x1="204.6" y1="120.9" x2="204.6" y2="64.0" stroke="#1b4f72" stroke-width="1" opacity="0.45"/>
<circle cx="204.6" cy="64.0" r="3" fill="#1b4f72"/>
<line x1="99.8" y1="120.9" x2="99.8" y2="64.0" stroke="#1b4f72" stroke-width="1" opacity="0.45"/>
<circle cx="99.8" cy="64.0" r="3" fill="#1b4f72"/>
<line x1="652" y1="64" x2="676" y2="64" stroke="#1b4f72" stroke-width="1.6"/>
<text x="682" y="68" fill="#1b4f72" font-size="11">channel-bob (n=40)</text>
<text x="652" y="86" fill="#777777" font-size="11">honest: no attacked runs</text>
<text x="652" y="104" fill="#777777" font-size="11">honest-unchecked: no attacked runs</text>
<text x="652" y="122" fill="#777777" font-size="11">impersonation-full: undetectable-by-construction</text>
<polyline points="625.3,64.0 612.8,64.0 595.3,64.0 576.8,64.0 561.0,64.0 542.5,64.0 524.4,64.0 507.3,64.0 489.9,64.0 471.1,64.0 417.6,64.0 367.5,64.0 316.5,64.0 204.6,64.0 99.8,64.0" fill="none" stroke="#b03a2e" stroke-width="1.6"/>
<line x1="625.3" y1="120.9" x2="625.3" y2="64.0" stroke="#b03a2e" stroke-width="1" opacity="0.45"/>
<circle cx="625.3" cy="64.0" r="3" fill="#b03a2e"/>
<line x1="612.8" y1="120.9" x2="612.8" y2="64.0" stroke="#b03a2e" stroke-width="1" opacity="0.45"/>
<circle cx="612.8" cy="64.0" r="3" fill="#b03a2e"/>
<line x1="595.3" y1="120.9" x2="595.3" y2="64.0" stroke="#b03a2e" stroke-width="1" opacity="0.45"/>
<circle cx="595.3" cy="64.0" r="3" fill="#b03a2e"/>
<line x1="576.8" y1="120.9" x2="576.8" y2="64.0" stroke="#b03a2e" stroke-width="1" opacity="0.45"/>
<circle cx="576.8" cy="64.0" r="3" fill="#b03a2e"/>
<line x1="561.0" y1="120.9" x2="561.0" y2="64.0" stroke="#b03a2e" stroke-width="1" opacity="0.45"/>
<circle cx="561.0" cy="64.0" r="3" fill="#b03a2e"/>
<line x1="542.5" y1="120.9" x2="542.5" y2="64.0" stroke="#b03a2e" stroke-width="1" opacity="0.45"/>
<circle cx="542.5" cy="64.0" r="3" fill="#b03a2e"/>
<line x1="524.4" y1="120.9" x2="524.4" y2="64.0" stroke="#b03a2e" stroke-width="1" opacity="0.45"/>
<circle cx="524.4" cy="64.0" r="3" fill="#b03a2e"/>
<line x1="507.3" y1="120.9" x2="507.3" y2="64.0" stroke="#b03a2e" stroke-width="1" opacity="0.45"/>
<circle cx="507.3" cy="64.0" r="3" fill="#b03a2e"/>
<line x1="489.9" y1="120.9" x2="489.9" y2="64.0" stroke="#b03a2e" stroke-width="1" opacity="0.45"/>
<circle cx="489.9" cy="64.0" r="3" fill="#b03a2e"/>
<line x1="471.1" y1="120.9" x2="471.1" y2="64.0" stroke="#b03a2e" stroke-width="1" opacity="0.45"/>
<circle cx="471.1" cy="64.0" r="3" fill="#b03a2e"/>
<line x1="417.6" y1="120.9" x2="417.6" y2="64.0" stroke="#b03a2e" stroke-width="1" opacity="0.45"/>
<circle cx="417.6" cy="64.0" r="3" fill="#b03a2e"/>
<line x1="367.5" y1="120.9" x2="367.5" y2="64.0" stroke="#b03a2e" stroke-width="1" opacity="0.45"/>
<circle cx="367.5" cy="64.0" r="3" fill="#b03a2e"/>
<line x1="316.5" y1="120.9" x2="316.5" y2="64.0" stroke="#b03a2e" stroke-width="1" opacity="0.45"/>
<circle cx="316.5" cy="64.0" r="3" fill="#b03a2e"/>
<line x1="204.6" y1="120.9" x2="204.6" y2="64.0" stroke="#b03a2e" stroke-width="1" opacity="0.45"/>
<circle cx="204.6" cy="64.0" r="3" fill="#b03a2e"/>
<line x1="99.8" y1="120.9" x2="99.8" y2="64.0" stroke="#b03a2e" stroke-width="1" opacity="0.45"/>
<circle cx="99.8" cy="64.0" r="3" fill="#b03a2e"/>
<line x1="652" y1="136" x2="676" y2="136" stroke="#b03a2e" stroke-width="1.6"/>
<text x="682" y="140" fill="#b03a2e" font-size="11">impersonation-signing (n=40)</text>
<polyline points="625.3,64.0 612.8,64.0 595.3,64.0 576.8,64.0 561.0,64.0 542.5,64.0 524.4,64.0 507.3,64.0 489.9,64.0 471.1,64.0 417.6,64.0 367.5,64.0 316.5,64.0 204.6,64.0 99.8,64.0" fill="none" stroke="#1e8449" stroke-width="1.6"/>
<line x1="625.3" y1="120.9" x2="625.3" y2="64.0" stroke="#1e8449" stroke-width="1" opacity="0.45"/>
<circle cx="625.3" cy="64.0" r="3" fill="#1e8449"/>
<line x1="612.8" y1="120.9" x2="612.8" y2="64.0" stroke="#1e8449" stroke-width="1" opacity="0.45"/>
<circle cx="612.8" cy="64.0" r="3" fill="#1e8449"/>
<line x1="595.3" y1="120.9" x2="595.3" y2="64.0" stroke="#1e8449" stroke-width="1" opacity="0.45"/>
<circle cx="595.3" cy="64.0" r="3" fill="#1e8449"/>
<line x1="576.8" y1="120.9" x2="576.8" y2="64.0" stroke="#1e8449" stroke-width="1" opacity="0.45"/>
<circle cx="576.8" cy="64.0" r="3" fill="#1e8449"/>
<line x1="561.0" y1="120.9" x2="561.0" y2="64.0" stroke="#1e8449" stroke-width="1" opacity="0.45"/>
<circle cx="561.0" cy="64.0" r="3" fill="#1e8449"/>
<line x1="542.5" y1="120.9" x2="542.5" y2="64.0" stroke="#1e8449" stroke-width="1" opacity="0.45"/>
<circle cx="542.5" cy="64.0" r="3" fill="#1e8449"/>
<line x1="524.4" y1="120.9" x2="524.4" y2="64.0" stroke="#1e8449" stroke-width="1" opacity="0.45"/>
<circle cx="524.4" cy="64.0" r="3" fill="#1e8449"/>
<line x1="507.3" y1="120.9" x2="507.3" y2="64.0" stroke="#1e8449" stroke-width="1" opacity="0.45"/>
<circle cx="507.3" cy="64.0" r="3" fill="#1e8449"/>
<line x1="489.9" y1="120.9" x2="489.9" y2="64.0" stroke="#1e8449" stroke-width="1" opacity="0.45"/>
<circle cx="489.9" cy="64.0" r="3" fill="#1e8449"/>
<line x1="471.1" y1="120.9" x2="471.1" y2="64.0" stroke="#1e8449" stroke-width="1" opacity="0.45"/>
<circle cx="471.1" cy="64.0" r="3" fill="#1e8449"/>
<line x1="417.6" y1="120.9" x2="417.6" y2="64.0" stroke="#1e8449" stroke-width="1" opacity="0.45"/>
<circle cx="417.6" cy="64.0" r="3" fill="#1e8449"/>
<line x1="367.5" y1="120.9" x2="367.5" y2="64.0" stroke="#1e8449" stroke-width="1" opacity="0.45"/>
<circle cx="367.5" cy="64.0" r="3" fill="#1e8449"/>
<line x1="316.5" y1="120.9" x2="316.5" y2="64.0" stroke="#1e8449" stroke-width="1" opacity="0.45"/>
<circle cx="316.5" cy="64.0" r="3" fill="#1e8449"/>
<line x1="204.6" y1="120.9" x2="204.6" y2="64.0" stroke="#1e8449" stroke-width="1" opacity="0.45"/>
<circle cx="204.6" cy="64.0" r="3" fill="#1e8449"/>
<line x1="99.8" y1="120.9" x2="99.8" y2="64.0" stroke="#1e8449" stroke-width="1" opacity="0.45"/>
<circle cx="99.8" cy="64.0" r="3" fill="#1e8449"/>
<line x1="652" y1="154" x2="676" y2="154" stroke="#1e8449" stroke-width="1.6"/>
<text x="682" y="158" fill="#1e8449" font-size="11">outside-forgery (n=40)</text>
<polyline points="625.3,64.0 612.8,64.0 595.3,64.0 576.8,64.0 561.0,64.0 542.5,64.0 524.4,64.0 507.3,64.0 489.9,64.0 471.1,64.0 417.6,64.0 367.5,64.0 316.5,64.0 204.6,64.0 99.8,64.0" fill="none" stroke="#7d3c98" stroke-width="1.6"/>
<line x1="625.3" y1="120.9" x2="625.3" y2="64.0" stroke="#7d3c98" stroke-width="1" opacity="0.45"/>
<circle cx="625.3" cy="64.0" r="3" fill="#7d3c98"/>
<line x1="612.8" y1="120.9" x2="612.8" y2="64.0" stroke="#7d3c98" stroke-width="1" opacity="0.45"/>
<circle cx="612.8" cy="64.0" r="3" fill="#7d3c98"/>
<line x1="595.3" y1="120.9" x2="595.3" y2="64.0" stroke="#7d3c98" stroke-width="1" opacity="0.45"/>
<circle cx="595.3" cy="64.0" r="3" fill="#7d3c98"/>
<line x1="576.8" y1="120.9" x2="576.8" y2="64.0" stroke="#7d3c98" stroke-width="1" opacity="0.45"/>
<circle cx="576.8" cy="64.0" r="3" fill="#7d3c98"/>
<line x1="561.0" y1="120.9" x2="561.0" y2="64.0" stroke="#7d3c98" stroke-width="1" opacity="0.45"/>
<circle cx="561.0" cy="64.0" r="3" fill="#7d3c98"/>
<line x1="542.5" y1="120.9" x2="542.5" y2="64.0" stroke="#7d3c98" stroke-width="1" opacity="0.45"/>
<circle cx="542.5" cy="64.0" r="3" fill="#7d3c98"/>
<line x1="524.4" y1="120.9" x2="524.4" y2="64.0" stroke="#7d3c98" stroke-width="1" opacity="0.45"/>
<circle cx="524.4" cy="64.0" r="3" fill="#7d3c98"/>
<line x1="507.3" y1="120.9" x2="507.3" y2="64.0" stroke="#7d3c98" stroke-width="1" opacity="0.45"/>
<circle cx="507.3" cy="64.0" r="3" fill="#7d3c98"/>
<line x1="489.9" y1="120.9" x2="489.9" y2="64.0" stroke="#7d3c98" stroke-width="1" opacity="0.45"/>
<circle cx="489.9" cy="64.0" r="3" fill="#7d3c98"/>
<line x1="471.1" y1="120.9" x2="471.1" y2="64.0" stroke="#7d3c98" stroke-width="1" opacity="0.45"/>
<circle cx="471.1" cy="64.0" r="3" fill="#7d3c98"/>
<line x1="417.6" y1="120.9" x2="417.6" y2="64.0" stroke="#7d3c98" stroke-width="1" opacity="0.45"/>
<circle cx="417.6" cy="64.0" r="3" fill="#7d3c98"/>
<line x1="367.5" y1="120.9" x2="367.5" y2="64.0" stroke="#7d3c98" stroke-width="1" opacity="0.45"/>
<circle cx="367.5" cy="64.0" r="3" fill="#7d3c98"/>
<line x1="316.5" y1="120.9" x2="316.5" y2="64.0" stroke="#7d3c98" stroke-width="1" opacity="0.45"/>
<circle cx="316.5" cy="64.0" r="3" fill="#7d3c98"/>
<line x1="204.6" y1="120.9" x2="204.6" y2="64.0" stroke="#7d3c98" stroke-width="1" opacity="0.45"/>
<circle cx="204.6" cy="64.0" r="3" fill="#7d3c98"/>
<line x1="99.8" y1="120.9" x2="99.8" y2="64.0" stroke="#7d3c98" stroke-width="1" opacity="0.45"/>
<circle cx="99.8" cy="64.0" r="3" fill="#7d3c98"/>
<line x1="652" y1="172" x2="676" y2="172" stroke="#7d3c98" stroke-width="1.6"/>
<text x="682" y="176" fill="#7d3c98" font-size="11">recipient-forgery (n=40)</text>
<polyline points="625.3,64.0 612.8,64.0 595.3,64.0 576.8,64.0 561.0,64.0 542.5,64.0 524.4,64.0 507.3,64.0 489.9,64.0 471.1,64.0 417.6,64.0 367.5,64.0 316.5,64.0 204.6,64.0 99.8,64.0" fill="none" stroke="#b9770e" stroke-width="1.6"/>
<line x1="625.3" y1="120.9" x2="625.3" y2="64.0" stroke="#b9770e" stroke-width="1" opacity="0.45"/>
<circle cx="625.3" cy="64.0" r="3" fill="#b9770e"/>
<line x1="612.8" y1="120.9" x2="612.8" y2="64.0" stroke="#b9770e" stroke-width="1" opacity="0.45"/>
<circle cx="612.8" cy="64.0" r="3" fill="#b9770e"/>
<line x1="595.3" y1="120.9" x2="595.3" y2="64.0" stroke="#b9770e" stroke-width="1" opacity="0.45"/>
<circle cx="595.3" cy="64.0" r="3" fill="#b9770e"/>
<line x1="576.8" y1="120.9" x2="576.8" y2="64.0" stroke="#b9770e" stroke-width="1" opacity="0.45"/>
<circle cx="576.8" cy="64.0" r="3" fill="#b9770e"/>
<line x1="561.0" y1="120.9" x2="561.0" y2="64.0" stroke="#b9770e" stroke-width="1" opacity="0.45"/>
<circle cx="561.0" cy="64.0" r="3" fill="#b9770e"/>
<line x1="542.5" y1="120.9" x2="542.5" y2="64.0" stroke="#b9770e" stroke-width="1" opacity="0.45"/>
<circle cx="542.5" cy="64.0" r="3" fill="#b9770e"/>
<line x1="524.4" y1="120.9" x2="524.4" y2="64.0" stroke="#b9770e" stroke-width="1" opacity="0.45"/>
<circle cx="524.4" cy="64.0" r="3" fill="#b9770e"/>
<line x1="507.3" y1="120.9" x2="507.3" y2="64.0" stroke="#b9770e" stroke-width="1" opacity="0.45"/>
<circle cx="507.3" cy="64.0" r="3" fill="#b9770e"/>
<line x1="489.9" y1="120.9" x2="489.9" y2="64.0" stroke="#b9770e" stroke-width="1" opacity="0.45"/>
<circle cx="489.9" cy="64.0" r="3" fill="#b9770e"/>
<line x1="471.1" y1="120.9" x2="471.1" y2="64.0" stroke="#b9770e" stroke-width="1" opacity="0.45"/>
<circle cx="471.1" cy="64.0" r="3" fill="#b9770e"/>
<line x1="417.6" y1="120.9" x2="417.6" y2="64.0" stroke="#b9770e" stroke-width="1" opacity="0.45"/>
<circle cx="417.6" cy="64.0" r="3" fill="#b9770e"/>
<line x1="367.5" y1="120.9" x2="367.5" y2="64.0" stroke="#b9770e" stroke-width="1" opacity="0.45"/>
<circle cx="367.5" cy="64.0" r="3" fill="#b9770e"/>
<line x1="316.5" y1="120.9" x2="316.5" y2="64.0" stroke="#b9770e" stroke-width="1" opacity="0.45"/>
<circle cx="316.5" cy="64.0" r="3" fill="#b9770e"/>
<line x1="204.6" y1="120.9" x2="204.6" y2="64.0" stroke="#b9770e" stroke-width="1" opacity="0.45"/>
<circle cx="204.6" cy="64.0" r="3" fill="#b9770e"/>
<line x1="99.8" y1="120.9" x2="99.8" y2="64.0" stroke="#b9770e" stroke-width="1" opacity="0.45"/>
<circle cx="99.8" cy="64.0" r="3" fill="#b9770e"/>
<line x1="652" y1="190" x2="676" y2="190" stroke="#b9770e" stroke-width="1.6"/>
<text x="682" y="194" fill="#b9770e" font-size="11">recipient-forgery-after [after-forwarding] (n=40)</text>
<polyline points="625.3,64.0 612.8,64.0 595.3,64.0 576.8,64.0 561.0,64.0 542.5,64.0 524.4,64.0 507.3,64.0 489.9,64.0 471.1,64.0 417.6,64.0 367.5,64.0 316.5,64.0 204.6,64.0 99.8,64.0" fill="none" stroke="#117a8b" stroke-width="1.6"/>
<line x1="625.3" y1="120.9" x2="625.3" y2="64.0" stroke="#117a8b" stroke-width="1" opacity="0.45"/>
<circle cx="625.3" cy="64.0" r="3" fill="#117a8b"/>
<line x1="612.8" y1="120.9" x2="612.8" y2="64.0" stroke="#117a8b" stroke-width="1" opacity="0.45"/>
<circle cx="612.8" cy="64.0" r="3" fill="#117a8b"/>
<line x1="595.3" y1="120.9" x2="595.3" y2="64.0" stroke="#117a8b" stroke-width="1" opacity="0.45"/>
<circle cx="595.3" cy="64.0" r="3" fill="#117a8b"/>
<line x1="576.8" y1="120.9" x2="576.8" y2="64.0" stroke="#117a8b" stroke-width="1" opacity="0.45"/>
<circle cx="576.8" cy="64.0" r="3" fill="#117a8b"/>
<line x1="561.0" y1="120.9" x2="561.0" y2="64.0" stroke="#117a8b" stroke-width="1" opacity="0.45"/>
<circle cx="561.0" cy="64.0" r="3" fill="#117a8b"/>
<line x1="542.5" y1="120.9" x2="542.5" y2="64.0" stroke="#117a8b" stroke-width="1" opacity="0.45"/>
<circle cx="542.5" cy="64.0" r="3" fill="#117a8b"/>
<line x1="524.4" y1="120.9" x2="524.4" y2="64.0" stroke="#117a8b" stroke-width="1" opacity="0.45"/>
<circle cx="524.4" cy="64.0" r="3" fill="#117a8b"/>
<line x1="507.3" y1="120.9" x2="507.3" y2="64.0" stroke="#117a8b" stroke-width="1" opacity="0.45"/>
<circle cx="507.3" cy="64.0" r="3" fill="#117a8b"/>
<line x1="489.9" y1="120.9" x2="489.9" y2="64.0" stroke="#117a8b" stroke-width="1" opacity="0.45"/>
<circle cx="489.9" cy="64.0" r="3" fill="#117a8b"/>
<line x1="471.1" y1="120.9" x2="471.1" y2="64.0" stroke="#117a8b" stroke-width="1" opacity="0.45"/>
<circle cx="471.1" cy="64.0" r="3" fill="#117a8b"/>
<line x1="417.6" y1="120.9" x2="417.6" y2="64.0" stroke="#117a8b" stroke-width="1" opacity="0.45"/>
<circle cx="417.6" cy="64.0" r="3" fill="#117a8b"/>
<line x1="367.5" y1="120.9" x2="367.5" y2="64.0" stroke="#117a8b" stroke-width="1" opacity="0.45"/>
<circle cx="367.5" cy="64.0" r="3" fill="#117a8b"/>
<line x1="316.5" y1="120.9" x2="316.5" y2="64.0" stroke="#117a8b" stroke-width="1" opacity="0.45"/>
<circle cx="316.5" cy="64.0" r="3" fill="#117a8b"/>
<line x1="204.6" y1="120.9" x2="204.6" y2="64.0" stroke="#117a8b" stroke-width="1" opacity="0.45"/>
<circle cx="204.6" cy="64.0" r="3" fill="#117a8b"/>
<line x1="99.8" y1="120.9" x2="99.8" y2="64.0" stroke="#117a8b" stroke-width="1" opacity="0.45"/>
<circle cx="99.8" cy="64.0" r="3" fill="#117a8b"/>
<line x1="652" y1="208" x2="676" y2="208" stroke="#117a8b" stroke-width="1.6"/>
<text x="682" y="212" fill="#117a8b" font-size="11">replay (n=40)</text>
<polyline points="625.3,64.0 612.8,64.0 595.3,64.0 576.8,64.0 561.0,64.0 542.5,64.0 524.4,64.0 507.3,64.0 489.9,64.0 471.1,64.0 417.6,64.0 367.5,64.0 316.5,64.0 204.6,64.0 99.8,64.0" fill="none" stroke="#5d6d7e" stroke-width="1.6"/>
<line x1="625.3" y1="120.9" x2="625.3" y2="64.0" stroke="#5d6d7e" stroke-width="1" opacity="0.45"/>
<circle cx="625.3" cy="64.0" r="3" fill="#5d6d7e"/>
<line x1="612.8" y1="120.9" x2="612.8" y2="64.0" stroke="#5d6d7e" stroke-width="1" opacity="0.45"/>
<circle cx="612.8" cy="64.0" r="3" fill="#5d6d7e"/>
<line x1="595.3" y1="120.9" x2="595.3" y2="64.0" stroke="#5d6d7e" stroke-width="1" opacity="0.45"/>
<circle cx="595.3" cy="64.0" r="3" fill="#5d6d7e"/>
<line x1="576.8" y1="120.9" x2="576.8" y2="64.0" stroke="#5d6d7e" stroke-width="1" opacity="0.45"/>
<circle cx="576.8" cy="64.0" r="3" fill="#5d6d7e"/>
<line x1="561.0" y1="120.9" x2="561.0" y2="64.0" stroke="#5d6d7e" stroke-width="1" opacity="0.45"/>
<circle cx="561.0" cy="64.0" r="3" fill="#5d6d7e"/>
<line x1="542.5" y1="120.9" x2="542.5" y2="64.0" stroke="#5d6d7e" stroke-width="1" opacity="0.45"/>
<circle cx="542.5" cy="64.0" r="3" fill="#5d6d7e"/>
<line x1="524.4" y1="120.9" x2="524.4" y2="64.0" stroke="#5d6d7e" stroke-width="1" opacity="0.45"/>
<circle cx="524.4" cy="64.0" r="3" fill="#5d6d7e"/>
<line x1="507.3" y1="120.9" x2="507.3" y2="64.0" stroke="#5d6d7e" stroke-width="1" opacity="0.45"/>
<circle cx="507.3" cy="64.0" r="3" fill="#5d6d7e"/>
<line x1="489.9" y1="120.9" x2="489.9" y2="64.0" stroke="#5d6d7e" stroke-width="1" opacity="0.45"/>
<circle cx="489.9" cy="64.0" r="3" fill="#5d6d7e"/>
<line x1="471.1" y1="120.9" x2="471.1" y2="64.0" stroke="#5d6d7e" stroke-width="1" opacity="0.45"/>
<circle cx="471.1" cy="64.0" r="3" fill="#5d6d7e"/>
<line x1="417.6" y1="120.9" x2="417.6" y2="64.0" stroke="#5d6d7e" stroke-width="1" opacity="0.45"/>
<circle cx="417.6" cy="64.0" r="3" fill="#5d6d7e"/>
<line x1="367.5" y1="120.9" x2="367.5" y2="64.0" stroke="#5d6d7e" stroke-width="1" opacity="0.45"/>
<circle cx="367.5" cy="64.0" r="3" fill="#5d6d7e"/>
<line x1="316.5" y1="120.9" x2="316.5" y2="64.0" stroke="#5d6d7e" stroke-width="1" opacity="0.45"/>
<circle cx="316.5" cy="64.0" r="3" fill="#5d6d7e"/>
<line x1="204.6" y1="120.9" x2="204.6" y2="64.0" stroke="#5d6d7e" stroke-width="1" opacity="0.45"/>
<circle cx="204.6" cy="64.0" r="3" fill="#5d6d7e"/>
<line x1="99.8" y1="120.9" x2="99.8" y2="64.0" stroke="#5d6d7e" stroke-width="1" opacity="0.45"/>
<circle cx="99.8" cy="64.0" r="3" fill="#5d6d7e"/>
<line x1="652" y1="226" x2="676" y2="226" stroke="#5d6d7e" stroke-width="1.6"/>
<text x="682" y="230" fill="#5d6d7e" font-size="11">starvation (n=40)</text>
<polyline points="625.3,64.0 612.8,64.0 595.3,64.0 576.8,64.0 561.0,64.0 542.5,64.0 524.4,64.0 507.3,64.0 489.9,64.0 471.1,64.0 417.6,64.0 367.5,64.0 316.5,64.0 204.6,64.0 99.8,64.0" fill="none" stroke="#943126" stroke-width="1.6"/>
<line x1="625.3" y1="156.7" x2="625.3" y2="64.0" stroke="#943126" stroke-width="1" opacity="0.45"/>
<circle cx="625.3" cy="64.0" r="3" fill="#943126"/>
<line x1="612.8" y1="156.7" x2="612.8" y2="64.0" stroke="#943126" stroke-width="1" opacity="0.45"/>
<circle cx="612.8" cy="64.0" r="3" fill="#943126"/>
<line x1="595.3" y1="156.7" x2="595.3" y2="64.0" stroke="#943126" stroke-width="1" opacity="0.45"/>
<circle cx="595.3" cy="64.0" r="3" fill="#943126"/>
<line x1="576.8" y1="156.7" x2="576.8" y2="64.0" stroke="#943126" stroke-width="1" opacity="0.45"/>
<circle cx="576.8" cy="64.0" r="3" fill="#943126"/>
<line x1="561.0" y1="156.7" x2="561.0" y2="64.0" stroke="#943126" stroke-width="1" opacity="0.45"/>
<circle cx="561.0" cy="64.0" r="3" fill="#943126"/>
<line x1="542.5" y1="156.7" x2="542.5" y2="64.0" stroke="#943126" stroke-width="1" opacity="0.45"/>
<circle cx="542.5" cy="64.0" r="3" fill="#943126"/>
<line x1="524.4" y1="156.7" x2="524.4" y2="64.0" stroke="#943126" stroke-width="1" opacity="0.45"/>
<circle cx="524.4" cy="64.0" r="3" fill="#943126"/>
<line x1="507.3" y1="156.7" x2="507.3" y2="64.0" stroke="#943126" stroke-width="1" opacity="0.45"/>
<circle cx="507.3" cy="64.0" r="3" fill="#943126"/>
<line x1="489.9" y1="156.7" x2="489.9" y2="64.0" stroke="#943126" stroke-width="1" opacity="0.45"/>
<circle cx="489.9" cy="64.0" r="3" fill="#943126"/>
<line x1="471.1" y1="156.7" x2="471.1" y2="64.0" stroke="#943126" stroke-width="1" opacity="0.45"/>
<circle cx="471.1" cy="64.0" r="3" fill="#943126"/>
<line x1="417.6" y1="156.7" x2="417.6" y2="64.0" stroke="#943126" stroke-width="1" opacity="0.45"/>
<circle cx="417.6" cy="64.0" r="3" fill="#943126"/>
<line x1="367.5" y1="156.7" x2="367.5" y2="64.0" stroke="#943126" stroke-width="1" opacity="0.45"/>
<circle cx="367.5" cy="64.0" r="3" fill="#943126"/>
<line x1="316.5" y1="156.7" x2="316.5" y2="64.0" stroke="#943126" stroke-width="1" opacity="0.45"/>
<circle cx="316.5" cy="64.0" r="3" fill="#943126"/>
<line x1="204.6" y1="156.7" x2="204.6" y2="64.0" stroke="#943126" stroke-width="1" opacity="0.45"/>
<circle cx="204.6" cy="64.0" r="3" fill="#943126"/>
<line x1="99.8" y1="156.7" x2="99.8" y2="64.0" stroke="#943126" stroke-width="1" opacity="0.45"/>
<circle cx="99.8" cy="64.0" r="3" fill="#943126"/>
<line x1="652" y1="244" x2="676" y2="244" stroke="#943126" stroke-width="1.6"/>
<text x="682" y="248" fill="#943126" font-size="11">starvation-selective (n=22)</text>
<text x="652" y="266" fill="#777777" font-size="11">tol-honest: no attacked runs</text>
<polyline points="629.8,424.0 617.3,454.0 599.9,464.0 582.6,464.0 565.6,464.0 547.5,464.0 529.5,464.0 512.2,464.0 495.2,464.0 476.9,464.0 423.9,464.0 372.7,464.0 321.1,464.0 212.2,464.0 106.8,464.0" fill="none" stroke="#1b4f72" stroke-width="1.6" stroke-dasharray="6 3"/>
<line x1="629.8" y1="451.9" x2="629.8" y2="350.6" stroke="#1b4f72" stroke-width="1" opacity="0.45"/>
<circle cx="629.8" cy="424.0" r="3" fill="#1b4f72"/>
<line x1="617.3" y1="462.8" x2="617.3" y2="391.1" stroke="#1b4f72" stroke-width="1" opacity="0.45"/>
<circle cx="617.3" cy="454.0" r="3" fill="#1b4f72"/>
<line x1="599.9" y1="464.0" x2="599.9" y2="407.1" stroke="#1b4f72" stroke-width="1" opacity="0.45"/>
<circle cx="599.9" cy="464.0" r="3" fill="#1b4f72"/>
<line x1="582.6" y1="464.0" x2="582.6" y2="407.1" stroke="#1b4f72" stroke-width="1" opacity="0.45"/>
<circle cx="582.6" cy="464.0" r="3" fill="#1b4f72"/>
<line x1="565.6" y1="464.0" x2="565.6" y2="407.1" stroke="#1b4f72" stroke-width="1" opacity="0.45"/>
<circle cx="565.6" cy="464.0" r="3" fill="#1b4f72"/>
<line x1="547.5" y1="464.0" x2="547.5" y2="407.1" stroke="#1b4f72" stroke-width="1" opacity="0.45"/>
<circle cx="547.5" cy="464.0" r="3" fill="#1b4f72"/>
<line x1="529.5" y1="464.0" x2="529.5" y2="407.1" stroke="#1b4f72" stroke-width="1" opacity="0.45"/>
<circle cx="529.5" cy="464.0" r="3" fill="#1b4f72"/>
<line x1="512.2" y1="464.0" x2="512.2" y2="407.1" stroke="#1b4f72" stroke-width="1" opacity="0.45"/>
<circle cx="512.2" cy="464.0" r="3" fill="#1b4f72"/>
<line x1="495.2" y1="464.0" x2="495.2" y2="407.1" stroke="#1b4f72" stroke-width="1" opacity="0.45"/>
<circle cx="495.2" cy="464.0" r="3" fill="#1b4f72"/>
<line x1="476.9" y1="464.0" x2="476.9" y2="407.1" stroke="#1b4f72" stroke-width="1" opacity="0.45"/>
<circle cx="476.9" cy="464.0" r="3" fill="#1b4f72"/>
<line x1="423.9" y1="464.0" x2="423.9" y2="407.1" stroke="#1b4f72" stroke-width="1" opacity="0.45"/>
<circle cx="423.9" cy="464.0" r="3" fill="#1b4f72"/>
<line x1="372.7" y1="464.0" x2="372.7" y2="407.1" stroke="#1b4f72" stroke-width="1" opacity="0.45"/>
<circle cx="372.7" cy="464.0" r="3" fill="#1b4f72"/>
<line x1="321.1" y1="464.0" x2="321.1" y2="407.1" stroke="#1b4f72" stroke-width="1" opacity="0.45"/>
<circle cx="321.1" cy="464.0" r="3" fill="#1b4f72"/>
<line x1="212.2" y1="464.0" x2="212.2" y2="407.1" stroke="#1b4f72" stroke-width="1" opacity="0.45"/>
<circle cx="212.2" cy="464.0" r="3" fill="#1b4f72"/>
<line x1="106.8" y1="464.0" x2="106.8" y2="407.1" stroke="#1b4f72" stroke-width="1" opacity="0.45"/>
<circle cx="106.8" cy="464.0" r="3" fill="#1b4f72"/>
<line x1="652" y1="280" x2="676" y2="280" stroke="#1b4f72" stroke-width="1.6" stroke-dasharray="6 3"/>
<text x="682" y="284" fill="#1b4f72" font-size="11">tol-p05 (n=40)</text>
<polyline points="629.8,204.0 617.3,334.0 599.9,394.0 582.6,424.0 565.6,454.0 547.5,464.0 529.6,464.0 512.2,464.0 495.1,464.0 476.8,464.0 424.0,464.0 372.5,464.0 321.0,464.0 212.2,464.0 106.7,464.0" fill="none" stroke="#b03a2e" stroke-width="1.6" stroke-dasharray="6 3"/>
<line x1="629.8" y1="285.0" x2="629.8" y2="140.1" stroke="#b03a2e" stroke-width="1" opacity="0.45"/>
<circle cx="629.8" cy="204.0" r="3" fill="#b03a2e"/>
<line x1="617.3" y1="395.4" x2="617.3" y2="252.7" stroke="#b03a2e" stroke-width="1" opacity="0.45"/>
<circle cx="617.3" cy="334.0" r="3" fill="#b03a2e"/>
<line x1="599.9" y1="435.7" x2="599.9" y2="315.3" stroke="#b03a2e" stroke-width="1" opacity="0.45"/>
<circle cx="599.9" cy="394.0" r="3" fill="#b03a2e"/>
<line x1="582.6" y1="451.9" x2="582.6" y2="350.6" stroke="#b03a2e" stroke-width="1" opacity="0.45"/>
<circle cx="582.6" cy="424.0" r="3" fill="#b03a2e"/>
<line x1="565.6" y1="462.8" x2="565.6" y2="391.1" stroke="#b03a2e" stroke-width="1" opacity="0.45"/>
<circle cx="565.6" cy="454.0" r="3" fill="#b03a2e"/>
<line x1="547.5" y1="464.0" x2="547.5" y2="407.1" stroke="#b03a2e" stroke-width="1" opacity="0.45"/>
<circle cx="547.5" cy="464.0" r="3" fill="#b03a2e"/>
<line x1="529.6" y1="464.0" x2="529.6" y2="407.1" stroke="#b03a2e" stroke-width="1" opacity="0.45"/>
<circle cx="529.6" cy="464.0" r="3" fill="#b03a2e"/>
<line x1="512.2" y1="464.0" x2="512.2" y2="407.1" stroke="#b03a2e" stroke-width="1" opacity="0.45"/>
<circle cx="512.2" cy="464.0" r="3" fill="#b03a2e"/>
<line x1="495.1" y1="464.0" x2="495.1" y2="407.1" stroke="#b03a2e" stroke-width="1" opacity="0.45"/>
<circle cx="495.1" cy="464.0" r="3" fill="#b03a2e"/>
<line x1="476.8" y1="464.0" x2="476.8" y2="407.1" stroke="#b03a2e" stroke-width="1" opacity="0.45"/>
<circle cx="476.8" cy="464.0" r="3" fill="#b03a2e"/>
<line x1="424.0" y1="464.0" x2="424.0" y2="407.1" stroke="#b03a2e" stroke-width="1" opacity="0.45"/>
<circle cx="424.0" cy="464.0" r="3" fill="#b03a2e"/>
<line x1="372.5" y1="464.0" x2="372.5" y2="407.1" stroke="#b03a2e" stroke-width="1" opacity="0.45"/>
<circle cx="372.5" cy="464.0" r="3" fill="#b03a2e"/>
<line x1="321.0" y1="464.0" x2="321.0" y2="407.1" stroke="#b03a2e" stroke-width="1" opacity="0.45"/>
<circle cx="321.0" cy="464.0" r="3" fill="#b03a2e"/>
<line x1="212.2" y1="464.0" x2="212.2" y2="407.1" stroke="#b03a2e" stroke-width="1" opacity="0.45"/>
<circle cx="212.2" cy="464.0" r="3" fill="#b03a2e"/>
<line x1="106.7" y1="464.0" x2="106.7" y2="407.1" stroke="#b03a2e" stroke-width="1" opacity="0.45"/>
<circle cx="106.7" cy="464.0" r="3" fill="#b03a2e"/>
<line x1="652" y1="298" x2="676" y2="298" stroke="#b03a2e" stroke-width="1.6" stroke-dasharray="6 3"/>
<text x="682" y="302" fill="#b03a2e" font-size="11">tol-p20 (n=40)</text>
<polyline points="629.8,64.0 617.4,64.0 599.9,74.0 582.6,164.0 565.7,284.0 547.5,354.0 529.6,434.0 512.1,454.0 495.2,464.0 476.7,464.0 423.8,464.0 372.6,464.0 320.9,464.0 212.3,464.0 106.9,464.0" fill="none" stroke="#1e8449" stroke-width="1.6" stroke-dasharray="6 3"/>
<line x1="629.8" y1="120.9" x2="629.8" y2="64.0" stroke="#1e8449" stroke-width="1" opacity="0.45"/>
<circle cx="629.8" cy="64.0" r="3" fill="#1e8449"/>
<line x1="617.4" y1="120.9" x2="617.4" y2="64.0" stroke="#1e8449" stroke-width="1" opacity="0.45"/>
<circle cx="617.4" cy="64.0" r="3" fill="#1e8449"/>
<line x1="599.9" y1="136.9" x2="599.9" y2="65.2" stroke="#1e8449" stroke-width="1" opacity="0.45"/>
<circle cx="599.9" cy="74.0" r="3" fill="#1e8449"/>
<line x1="582.6" y1="245.1" x2="582.6" y2="111.4" stroke="#1e8449" stroke-width="1" opacity="0.45"/>
<circle cx="582.6" cy="164.0" r="3" fill="#1e8449"/>
<line x1="565.7" y1="356.3" x2="565.7" y2="206.0" stroke="#1e8449" stroke-width="1" opacity="0.45"/>
<circle cx="565.7" cy="284.0" r="3" fill="#1e8449"/>
<line x1="547.5" y1="409.8" x2="547.5" y2="272.6" stroke="#1e8449" stroke-width="1" opacity="0.45"/>
<circle cx="547.5" cy="354.0" r="3" fill="#1e8449"/>
<line x1="529.6" y1="456.3" x2="529.6" y2="363.3" stroke="#1e8449" stroke-width="1" opacity="0.45"/>
<circle cx="529.6" cy="434.0" r="3" fill="#1e8449"/>
<line x1="512.1" y1="462.8" x2="512.1" y2="391.1" stroke="#1e8449" stroke-width="1" opacity="0.45"/>
<circle cx="512.1" cy="454.0" r="3" fill="#1e8449"/>
<line x1="495.2" y1="464.0" x2="495.2" y2="407.1" stroke="#1e8449" stroke-width="1" opacity="0.45"/>
<circle cx="495.2" cy="464.0" r="3" fill="#1e8449"/>
<line x1="476.7" y1="464.0" x2="476.7" y2="407.1" stroke="#1e8449" stroke-width="1" opacity="0.45"/>
<circle cx="476.7" cy="464.0" r="3" fill="#1e8449"/>
<line x1="423.8" y1="464.0" x2="423.8" y2="407.1" stroke="#1e8449" stroke-width="1" opacity="0.45"/>
<circle cx="423.8" cy="464.0" r="3" fill="#1e8449"/>
<line x1="372.6" y1="464.0" x2="372.6" y2="407.1" stroke="#1e8449" stroke-width="1" opacity="0.45"/>
<circle cx="372.6" cy="464.0" r="3" fill="#1e8449"/>
<line x1="320.9" y1="464.0" x2="320.9" y2="407.1" stroke="#1e8449" stroke-width="1" opacity="0.45"/>
<circle cx="320.9" cy="464.0" r="3" fill="#1e8449"/>
<line x1="212.3" y1="464.0" x2="212.3" y2="407.1" stroke="#1e8449" stroke-width="1" opacity="0.45"/>
<circle cx="212.3" cy="464.0" r="3" fill="#1e8449"/>
<line x1="106.9" y1="464.0" x2="106.9" y2="407.1" stroke="#1e8449" stroke-width="1" opacity="0.45"/>
<circle cx="106.9" cy="464.0" r="3" fill="#1e8449"/>
<line x1="652" y1="316" x2="676" y2="316" stroke="#1e8449" stroke-width="1.6" stroke-dasharray="6 3"/>
<text x="682" y="320" fill="#1e8449" font-size="11">tol-p35 (n=40)</text>
<text x="96" y="548" fill="#777777" font-size="10">Regenerate: python tools/sweep.py reduce roc --results &apos;C:\Users\Aftab\.sih141\results&apos; --charts &apos;docs\figures&apos;</text>
</svg>